<?xml version="1.0" encoding="UTF-8" standalone="no"?>
<!-- Created with Inkscape (http://www.inkscape.org/) -->

<svg
   version="1.1"
   id="svg132"
   width="810"
   height="195"
   viewBox="0 0 795.56803 191.52564"
   sodipodi:docname="logo_tassay.svg"
   inkscape:version="1.2.1 (9c6d41e410, 2022-07-14)"
   xmlns:inkscape="http://www.inkscape.org/namespaces/inkscape"
   xmlns:sodipodi="http://sodipodi.sourceforge.net/DTD/sodipodi-0.dtd"
   xmlns="http://www.w3.org/2000/svg"
   xmlns:svg="http://www.w3.org/2000/svg">
  <defs
     id="defs136">
    <clipPath
       clipPathUnits="userSpaceOnUse"
       id="clipPath148">
      <path
         d="m 124.535,297.706 c 0,-38.142 30.913,-69.062 69.061,-69.062 v 0 c 38.138,0 69.061,30.92 69.061,69.062 v 0 c 0,38.139 -30.923,69.066 -69.061,69.066 v 0 c -38.148,0 -69.061,-30.927 -69.061,-69.066"
         id="path146" />
    </clipPath>
    <radialGradient
       fx="0"
       fy="0"
       cx="0"
       cy="0"
       r="1"
       gradientUnits="userSpaceOnUse"
       gradientTransform="matrix(68.977974,0,0,-68.977974,193.0428,297.85971)"
       spreadMethod="pad"
       id="radialGradient164">
      <stop
         style="stop-opacity:1;stop-color:#ffffff"
         offset="0"
         id="stop154" />
      <stop
         style="stop-opacity:1;stop-color:#ffffff"
         offset="0.4551332"
         id="stop156" />
      <stop
         style="stop-opacity:1;stop-color:#ffffff"
         offset="0.487079"
         id="stop158" />
      <stop
         style="stop-opacity:1;stop-color:#ffffff"
         offset="0.87507435"
         id="stop160" />
      <stop
         style="stop-opacity:1;stop-color:#1e5bb2"
         offset="1"
         id="stop162" />
    </radialGradient>
    <clipPath
       clipPathUnits="userSpaceOnUse"
       id="clipPath174">
      <path
         d="m 124.726,296.271 c 1.099,-37.695 31.842,-67.684 68.838,-67.684 v 0 c 37.6,0 69.202,30.8 68.906,69.462 v 0 c -0.022,-0.041 -0.054,-0.099 -0.076,-0.138 v 0 c -1.624,-4.469 -13.473,-30.638 -42.119,-25.508 v 0 c -8.9,1.596 -18.687,7.736 -23.832,17.464 v 0 c -0.491,0.917 -2.166,5.258 -2.71,7.008 v 0 c -0.548,1.742 -1.362,4.124 -1.647,4.819 v 0 c -4.626,11.368 -15.422,18.565 -25.162,20.305 v 0 c -2.537,0.455 -4.943,0.664 -7.222,0.664 v 0 c -23.897,0 -33.802,-22.969 -34.976,-26.392"
         id="path172" />
    </clipPath>
    <radialGradient
       fx="0"
       fy="0"
       cx="0"
       cy="0"
       r="1"
       gradientUnits="userSpaceOnUse"
       gradientTransform="matrix(73.515045,0,0,-73.515045,166.77982,305.18228)"
       spreadMethod="pad"
       id="radialGradient194">
      <stop
         style="stop-opacity:1;stop-color:#e7ebf8"
         offset="0"
         id="stop180" />
      <stop
         style="stop-opacity:1;stop-color:#407ac6"
         offset="0.35990302"
         id="stop182" />
      <stop
         style="stop-opacity:1;stop-color:#407ac6"
         offset="0.385215"
         id="stop184" />
      <stop
         style="stop-opacity:1;stop-color:#407ac6"
         offset="0.4485746"
         id="stop186" />
      <stop
         style="stop-opacity:1;stop-color:#2251aa"
         offset="0.695254"
         id="stop188" />
      <stop
         style="stop-opacity:1;stop-color:#2251aa"
         offset="0.70325427"
         id="stop190" />
      <stop
         style="stop-opacity:1;stop-color:#214084"
         offset="1"
         id="stop192" />
    </radialGradient>
    <clipPath
       clipPathUnits="userSpaceOnUse"
       id="clipPath204">
      <path
         d="M 0,595.28 H 841.89 V 0 H 0 Z"
         id="path202" />
    </clipPath>
  </defs>
  <sodipodi:namedview
     id="namedview134"
     pagecolor="#ffffff"
     bordercolor="#000000"
     borderopacity="0.25"
     inkscape:showpageshadow="2"
     inkscape:pageopacity="0.0"
     inkscape:pagecheckerboard="0"
     inkscape:deskcolor="#d1d1d1"
     showgrid="false"
     inkscape:zoom="1.0120531"
     inkscape:cx="464.4025"
     inkscape:cy="468.35486"
     inkscape:window-width="2256"
     inkscape:window-height="1410"
     inkscape:window-x="-11"
     inkscape:window-y="-11"
     inkscape:window-maximized="1"
     inkscape:current-layer="g140">
    <inkscape:page
       x="0"
       y="0"
       id="page138"
       width="795.56805"
       height="191.52563" />
  </sodipodi:namedview>
  <g
     id="g140"
     inkscape:groupmode="layer"
     inkscape:label="Page 1"
     transform="matrix(1.3333333,0,0,-1.3333333,0,793.70667)">
    <g
       id="g454"
       transform="translate(-121.19437,225.7514)">
      <g
         id="g142">
        <g
           id="g144"
           clip-path="url(#clipPath148)">
          <g
             id="g150">
            <g
               id="g152">
              <path
                 d="m 124.535,297.706 c 0,-38.142 30.913,-69.062 69.061,-69.062 v 0 c 38.138,0 69.061,30.92 69.061,69.062 v 0 c 0,38.139 -30.923,69.066 -69.061,69.066 v 0 c -38.148,0 -69.061,-30.927 -69.061,-69.066"
                 style="fill:url(#radialGradient164);stroke:none"
                 id="path166" />
            </g>
          </g>
        </g>
      </g>
      <g
         id="g168">
        <g
           id="g170"
           clip-path="url(#clipPath174)">
          <g
             id="g176">
            <g
               id="g178">
              <path
                 d="m 124.726,296.271 c 1.099,-37.695 31.842,-67.684 68.838,-67.684 v 0 c 37.6,0 69.202,30.8 68.906,69.462 v 0 c -0.022,-0.041 -0.054,-0.099 -0.076,-0.138 v 0 c -1.624,-4.469 -13.473,-30.638 -42.119,-25.508 v 0 c -8.9,1.596 -18.687,7.736 -23.832,17.464 v 0 c -0.491,0.917 -2.166,5.258 -2.71,7.008 v 0 c -0.548,1.742 -1.362,4.124 -1.647,4.819 v 0 c -4.626,11.368 -15.422,18.565 -25.162,20.305 v 0 c -2.537,0.455 -4.943,0.664 -7.222,0.664 v 0 c -23.897,0 -33.802,-22.969 -34.976,-26.392"
                 style="fill:url(#radialGradient194);stroke:none"
                 id="path196" />
            </g>
          </g>
        </g>
      </g>
      <g
         id="g198">
        <g
           id="g200"
           clip-path="url(#clipPath204)">
          <g
             id="g206"
             transform="translate(123.861,297.1756)">
            <path
               d="m 0,0 0.227,-3.412 0.908,3.016 C 4.014,7.87 18.06,30.163 43.946,24.393 54.608,22.018 62.283,15.963 67.342,5.92 67.631,5.351 67.847,4.904 68.175,4.183 68.816,2.746 69.27,1.34 69.479,0.769 c 2.09,-5.677 2.89,-8.949 6.166,-11.702 l -0.887,2.898 C 73.075,-6.5 72.081,-3.412 70.009,2.901 l -0.13,0.378 -0.612,1.409 C 64.063,16.136 55.862,22.971 44.205,25.562 17.472,31.525 2.973,8.525 0,0"
               style="fill:#ffffff;fill-opacity:1;fill-rule:nonzero;stroke:none"
               id="path208" />
          </g>
          <g
             id="g210"
             transform="translate(193.5925,228.9395)">
            <path
               d="m 0,0 c -37.921,0 -68.773,30.852 -68.773,68.766 0,37.919 30.852,68.775 68.773,68.775 37.925,0 68.773,-30.856 68.773,-68.775 C 68.773,30.852 37.925,0 0,0 m 0,140.373 c -39.478,0 -71.602,-32.124 -71.602,-71.607 0,-39.473 32.124,-71.605 71.602,-71.605 39.485,0 71.605,32.132 71.605,71.605 0,39.483 -32.12,71.607 -71.605,71.607"
               style="fill:#ffffff;fill-opacity:1;fill-rule:nonzero;stroke:none"
               id="path212" />
          </g>
          <g
             id="g214"
             transform="translate(361.5831,343.4635)">
            <path
               d="m 0,0 c 0,0 -3.164,-0.543 -3.349,-0.575 -0.209,0 -73.256,-0.009 -73.256,-0.009 L -87.082,-17 l 3.801,1.785 c 0.215,0.096 2.11,0.976 4.039,1.331 1.032,0.196 11.353,0.268 26.333,0.196 v -69.651 c 0,0 -0.04,-0.886 -0.695,-1.932 -0.678,-1.096 -1.913,-2.3 -2.272,-2.64 l -2.231,-2.098 h 30.169 l -4.63,5.413 c -0.278,0.492 -0.302,1.337 -0.302,1.498 v 68.709 c 2.139,0.002 18.713,0.071 18.713,0.071 l 3.054,0.675 c 4.908,1.557 10.651,9.383 12.297,11.746 l 1.663,2.381 z"
               style="fill:#ce0f3e;fill-opacity:1;fill-rule:nonzero;stroke:none"
               id="path216" />
          </g>
          <g
             id="g218"
             transform="translate(462.9615,344.7222)">
            <path
               d="m 0,0 c -12.842,-0.752 -22.189,-6.49 -25.005,-15.352 -0.835,-2.629 -1.252,-5.245 -1.252,-7.769 0,-6.248 2.52,-10.813 4.636,-13.532 3.071,-3.954 12.627,-11.823 20.306,-18.141 3.998,-3.282 7.945,-6.521 9.208,-7.803 2.161,-2.196 3.448,-5.122 3.454,-7.841 -0.006,-0.005 -0.087,-1.217 -0.087,-1.217 -0.753,-5.306 -2.845,-8.124 -6.977,-9.315 -4.932,-1.431 -12.459,0.055 -15.786,1.629 -4.306,2.048 -8.049,6.571 -9.093,7.91 0,0.004 -4.687,7.023 -4.687,7.023 l -2.232,3.344 v -24.114 l 0.423,-0.376 c 0.788,-0.684 5.065,-4.195 12.32,-6.55 8.38,-2.713 21.158,-2.002 26.275,-0.318 6.062,1.979 13.607,4.443 18.655,13.886 1.836,3.432 2.77,7.305 2.77,11.509 0,4.719 -1.2,8.628 -2.22,10.541 -1.367,2.55 -3.257,4.963 -5.777,7.389 -1.183,1.123 -6.63,5.433 -13.631,10.944 -6.479,5.102 -13.809,10.886 -14.458,11.626 l 0.249,-0.488 -1.066,1.378 c -0.962,0.994 -1.855,1.911 -2.376,4.82 l -0.116,1.359 c 0,1.505 0.429,3.084 1.281,4.698 0.979,1.852 4.311,3.731 9.318,3.484 4.926,-0.242 8.919,-1.596 10.842,-2.68 3.692,-1.994 8.345,-6.938 8.867,-7.5 l 2.103,-2.267 v 20.158 l -0.857,0.263 C 24.96,-3.262 12.083,0.711 0,0"
               style="fill:#ce0f3e;fill-opacity:1;fill-rule:nonzero;stroke:none"
               id="path220" />
          </g>
          <g
             id="g222"
             transform="translate(386.1078,320.3934)">
            <path
               d="M 0,0 C 1.721,-4.798 9.086,-25.429 10.031,-28.074 H -10.762 C -10.275,-26.807 -1.866,-4.88 0,0 m -9.84,23.403 h -2.921 l 2.666,-2.686 c 0.591,-0.516 1.31,-1.136 1.663,-2.121 l 0.116,-0.891 c 0,-1.075 -0.33,-2.399 -0.545,-3.03 -10.159,-27.096 -27.63,-73.486 -28.737,-75.481 -1.345,-2.307 -3.721,-3.905 -4.179,-4.2 l -3.483,-2.24 h 25.371 l -3.222,2.222 c -0.232,0.158 -0.788,0.629 -0.846,1.446 0.035,0.018 0.44,2.276 0.44,2.276 0,-0.032 7.546,19.641 8.606,22.404 h 28.807 c 0.534,-1.514 8.021,-22.796 8.021,-22.796 0.22,-0.594 0.464,-1.497 0.464,-2.173 0,-0.624 -0.54,-1.026 -0.713,-1.133 l -3.419,-2.236 32.991,-0.01 -3.535,2.246 c -0.962,0.61 -1.837,1.386 -2.602,2.306 -1.495,1.798 -2.66,4.588 -2.666,4.616 0.011,-0.045 -28.071,80.664 -28.071,80.664 l -0.284,0.817 h -0.864 z"
               style="fill:#ce0f3e;fill-opacity:1;fill-rule:nonzero;stroke:none"
               id="path224" />
          </g>
          <g
             id="g226"
             transform="translate(603.3931,320.3934)">
            <path
               d="M 0,0 C 1.715,-4.798 9.087,-25.429 10.031,-28.074 H -10.767 C -10.28,-26.807 -1.872,-4.88 0,0 m -9.834,23.403 h -2.927 l 2.666,-2.686 c 0.626,-0.548 1.315,-1.155 1.663,-2.117 0,0.009 0.11,-0.898 0.11,-0.898 0,-1.072 -0.324,-2.405 -0.538,-3.034 -12.663,-33.776 -27.724,-73.638 -28.744,-75.478 -1.339,-2.289 -3.709,-3.901 -4.167,-4.196 l -3.471,-2.24 h 25.33 l -3.199,2.222 c -0.237,0.158 -0.793,0.629 -0.846,1.446 0.029,0.009 0.441,2.276 0.441,2.276 0.006,-0.032 7.539,19.641 8.605,22.404 h 28.808 c 0.527,-1.514 8.02,-22.796 8.02,-22.796 0.214,-0.594 0.464,-1.497 0.464,-2.173 0,-0.587 -0.51,-1.001 -0.731,-1.157 l -3.117,-2.212 32.701,-0.01 -3.523,2.246 c -0.968,0.61 -1.843,1.386 -2.608,2.306 -1.31,1.575 -2.44,4.032 -2.672,4.61 0.018,-0.039 -28.071,80.67 -28.071,80.67 l -0.284,0.817 h -0.863 z"
               style="fill:#ce0f3e;fill-opacity:1;fill-rule:nonzero;stroke:none"
               id="path228" />
          </g>
          <g
             id="g230"
             transform="translate(693.0533,341.6805)">
            <path
               d="M 0,0 C 0,0 1.235,-1.312 1.507,-1.595 1.559,-1.737 1.652,-2.016 1.756,-2.321 1.629,-2.733 1.449,-3.318 1.397,-3.493 c -0.133,-0.21 -15.015,-25.534 -15.856,-26.972 -1.894,2.989 -17.431,27.553 -17.431,27.553 -2.063,3.401 -5.778,4.576 -6.502,4.782 l -0.162,0.047 -23.748,-0.01 -1.273,-0.015 4.682,-3.206 3.338,-2.463 c 2.225,-2.184 4.408,-4.885 4.408,-4.885 0.429,-0.427 2.909,-4.335 9.545,-14.783 0,0 11.648,-18.35 13.235,-20.843 0.006,-0.69 0.313,-34.946 0.313,-34.946 l -0.022,-2.849 c -0.088,-1.563 -1.745,-3.236 -2.707,-3.963 l -2.886,-2.194 h 32.481 l -4.068,2.455 c -0.91,0.503 -1.617,1.06 -1.988,1.577 -0.573,0.801 -0.619,1.907 -0.619,1.918 v 39.017 c 0.109,0.189 0.411,0.709 0.411,0.709 12.546,21.727 20.358,35.158 21.418,36.854 1.919,3.063 5.535,5.103 5.94,5.328 l 4.115,2.45 H -1.958 Z"
               style="fill:#ce0f3e;fill-opacity:1;fill-rule:nonzero;stroke:none"
               id="path232" />
          </g>
          <g
             id="g234"
             transform="translate(529.3903,344.7222)">
            <path
               d="m 0,0 c -12.848,-0.752 -22.189,-6.49 -25,-15.352 -0.829,-2.629 -1.251,-5.245 -1.251,-7.769 0,-6.252 2.52,-10.813 4.635,-13.532 3.124,-4.014 12.773,-11.946 20.533,-18.323 4.195,-3.452 7.759,-6.385 8.981,-7.621 2.162,-2.196 3.455,-5.122 3.455,-7.841 0,-0.005 -0.093,-1.209 -0.093,-1.209 -0.754,-5.318 -2.845,-8.136 -6.972,-9.323 -4.931,-1.431 -12.465,0.055 -15.786,1.629 -4.305,2.048 -8.049,6.571 -9.098,7.91 0,0.004 -6.896,10.331 -6.896,10.331 l -0.017,-3.988 v -20.09 l 0.423,-0.367 c 0.776,-0.68 5.013,-4.191 12.314,-6.559 8.386,-2.713 21.164,-2.002 26.275,-0.318 6.062,1.975 13.601,4.433 18.66,13.886 4.659,8.719 2.382,18.621 0.551,22.05 -1.373,2.554 -3.269,4.973 -5.784,7.389 -1.246,1.176 -7.214,5.894 -13.543,10.88 -5.899,4.648 -13.867,10.924 -14.54,11.69 0,0 -0.005,-0.055 -0.005,-0.059 -0.197,0.287 -0.487,0.587 -0.811,0.949 -0.963,0.994 -1.855,1.911 -2.377,4.814 -0.081,0.452 -0.115,0.904 -0.115,1.36 0,1.514 0.428,3.089 1.28,4.713 0.974,1.846 4.306,3.721 9.313,3.474 4.926,-0.242 8.924,-1.596 10.848,-2.68 3.582,-1.934 8.009,-6.587 8.855,-7.504 l 2.109,-2.258 v 20.16 l -0.863,0.265 C 22.867,-2.627 11.277,0.665 0,0"
               style="fill:#ce0f3e;fill-opacity:1;fill-rule:nonzero;stroke:none"
               id="path236" />
          </g>
        </g>
      </g>
    </g>
  </g>
</svg>
